<svg xmlns="http://www.w3.org/2000/svg" viewBox="0 0 512 512" width="512" height="512">
  <defs>
    <linearGradient id="bgGrad" x1="0%" y1="0%" x2="100%" y2="100%">
      <stop offset="0%" stop-color="#0d111c"/>
      <stop offset="50%" stop-color="#090d16"/>
      <stop offset="100%" stop-color="#04060a"/>
    </linearGradient>
    <radialGradient id="glowGrad" cx="50%" cy="50%" r="50%">
      <stop offset="0%" stop-color="#6366f1" stop-opacity="0.4"/>
      <stop offset="50%" stop-color="#06b6d4" stop-opacity="0.18"/>
      <stop offset="100%" stop-color="#000000" stop-opacity="0"/>
    </radialGradient>
    <linearGradient id="cyanIndigo" x1="0%" y1="0%" x2="100%" y2="100%">
      <stop offset="0%" stop-color="#22d3ee"/>
      <stop offset="50%" stop-color="#6366f1"/>
      <stop offset="100%" stop-color="#a855f7"/>
    </linearGradient>
    <filter id="dropGlow" x="-20%" y="-20%" width="140%" height="140%">
      <feDropShadow dx="0" dy="6" stdDeviation="14" flood-color="#6366f1" flood-opacity="0.5"/>
    </filter>
  </defs>

  <rect width="512" height="512" fill="url(#bgGrad)"/>
  <circle cx="256" cy="256" r="220" fill="url(#glowGrad)"/>
  <circle cx="256" cy="256" r="185" fill="none" stroke="#334155" stroke-width="3" stroke-opacity="0.7"/>
  <circle cx="256" cy="256" r="168" fill="none" stroke="url(#cyanIndigo)" stroke-width="1.5" stroke-opacity="0.6" stroke-dasharray="6 12"/>

  <circle cx="256" cy="71" r="5" fill="#38bdf8"/>
  <circle cx="256" cy="441" r="4" fill="#6366f1"/>
  <circle cx="441" cy="256" r="4" fill="#6366f1"/>
  <circle cx="71" cy="256" r="4" fill="#6366f1"/>
  <circle cx="386.8" cy="125.2" r="3" fill="#94a3b8"/>
  <circle cx="125.2" cy="125.2" r="3" fill="#94a3b8"/>
  <circle cx="386.8" cy="386.8" r="3" fill="#94a3b8"/>
  <circle cx="125.2" cy="386.8" r="3" fill="#94a3b8"/>

  <g filter="url(#dropGlow)">
    <g transform="rotate(45 256 256)">
      <polygon points="256,112 244,244 256,256" fill="#4338ca" opacity="0.95"/>
      <polygon points="256,112 268,244 256,256" fill="#312e81" opacity="0.95"/>
      <polygon points="256,400 244,268 256,256" fill="#312e81" opacity="0.95"/>
      <polygon points="256,400 268,268 256,256" fill="#4338ca" opacity="0.95"/>
      <polygon points="112,256 244,244 256,256" fill="#312e81" opacity="0.95"/>
      <polygon points="112,256 244,268 256,256" fill="#4338ca" opacity="0.95"/>
      <polygon points="400,256 268,244 256,256" fill="#4338ca" opacity="0.95"/>
      <polygon points="400,256 268,268 256,256" fill="#312e81" opacity="0.95"/>
    </g>

    <polygon points="256,76 238,238 256,256" fill="#38bdf8"/>
    <polygon points="256,76 274,238 256,256" fill="#0284c7"/>
    <polygon points="256,436 238,274 256,256" fill="#4f46e5"/>
    <polygon points="256,436 274,274 256,256" fill="#6366f1"/>
    <polygon points="436,256 274,238 256,256" fill="#06b6d4"/>
    <polygon points="436,256 274,274 256,256" fill="#0891b2"/>
    <polygon points="76,256 238,238 256,256" fill="#6366f1"/>
    <polygon points="76,256 238,274 256,256" fill="#4f46e5"/>
  </g>

  <circle cx="256" cy="256" r="34" fill="#0f172a" stroke="#38bdf8" stroke-width="3"/>
  <circle cx="256" cy="256" r="22" fill="url(#cyanIndigo)"/>
  <polygon points="256,240 268,256 256,272 244,256" fill="#ffffff" opacity="0.95"/>
  <circle cx="256" cy="256" r="4" fill="#0f172a"/>
</svg>